<svg width="56" height="56" viewBox="0 0 56 56" fill="none" xmlns="http://www.w3.org/2000/svg">
<g clip-path="url(#clip0_1309_289)">
<g filter="url(#filter0_d_1309_289)">
<path fill-rule="evenodd" clip-rule="evenodd" d="M9.28614 13.3806L46.0584 13.3806C47.1675 13.3805 48.1952 13.8902 48.7648 14.723C49.3343 15.5558 49.3621 16.5891 48.8378 17.4444L30.4517 47.4732C29.9026 48.3695 28.8345 48.9289 27.6722 48.9289C26.51 48.9289 25.4419 48.3695 24.8928 47.4732L6.50667 17.4444C5.98241 16.5891 6.01015 15.5558 6.57973 14.723C7.14931 13.8902 8.17698 13.3805 9.28614 13.3806Z" stroke="url(#paint0_linear_1309_289)" stroke-width="1.5" stroke-linecap="round" stroke-linejoin="round"/>
</g>
<g filter="url(#filter1_d_1309_289)">
<path fill-rule="evenodd" clip-rule="evenodd" d="M45.4207 12.2083L40.4115 48.6377C40.2605 49.7365 39.6155 50.6852 38.7129 51.136C37.8103 51.5869 36.7828 51.4736 36.007 50.8377L8.76264 28.5324C7.94951 27.8663 7.54086 26.732 7.69919 25.5806C7.85751 24.4291 8.55714 23.4472 9.51989 23.0253L41.7734 8.90114C42.6921 8.49827 43.712 8.66652 44.4594 9.34423C45.2068 10.0219 45.5718 11.1095 45.4207 12.2083Z" stroke="url(#paint1_linear_1309_289)" stroke-width="1.5" stroke-linecap="round" stroke-linejoin="round"/>
</g>
</g>
<defs>
<filter id="filter0_d_1309_289" x="-1.55739" y="9.07944" width="58.4593" height="52.1519" filterUnits="userSpaceOnUse" color-interpolation-filters="sRGB">
<feFlood flood-opacity="0" result="BackgroundImageFix"/>
<feColorMatrix in="SourceAlpha" type="matrix" values="0 0 0 0 0 0 0 0 0 0 0 0 0 0 0 0 0 0 127 0" result="hardAlpha"/>
<feOffset dy="4"/>
<feGaussianBlur stdDeviation="2"/>
<feColorMatrix type="matrix" values="0 0 0 0 0 0 0 0 0 0 0 0 0 0 0 0 0 0 0.25 0"/>
<feBlend mode="normal" in2="BackgroundImageFix" result="effect1_dropShadow_1309_289"/>
<feBlend mode="normal" in="SourceGraphic" in2="effect1_dropShadow_1309_289" result="shape"/>
</filter>
<filter id="filter1_d_1309_289" x="-4.00002" y="0" width="58.614" height="64.0034" filterUnits="userSpaceOnUse" color-interpolation-filters="sRGB">
<feFlood flood-opacity="0" result="BackgroundImageFix"/>
<feColorMatrix in="SourceAlpha" type="matrix" values="0 0 0 0 0 0 0 0 0 0 0 0 0 0 0 0 0 0 127 0" result="hardAlpha"/>
<feOffset dy="4"/>
<feGaussianBlur stdDeviation="2"/>
<feColorMatrix type="matrix" values="0 0 0 0 0 0 0 0 0 0 0 0 0 0 0 0 0 0 0.25 0"/>
<feBlend mode="normal" in2="BackgroundImageFix" result="effect1_dropShadow_1309_289"/>
<feBlend mode="normal" in="SourceGraphic" in2="effect1_dropShadow_1309_289" result="shape"/>
</filter>
<linearGradient id="paint0_linear_1309_289" x1="6.13214" y1="14.283" x2="41.0114" y2="55.2841" gradientUnits="userSpaceOnUse">
<stop stop-color="#0FEFFD"/>
<stop offset="0.515718" stop-color="#FF00F5"/>
<stop offset="0.776042" stop-color="#0FEFFD" stop-opacity="0"/>
</linearGradient>
<linearGradient id="paint1_linear_1309_289" x1="44.9563" y1="8.96075" x2="-0.413894" y2="37.9296" gradientUnits="userSpaceOnUse">
<stop stop-color="#0FEFFD"/>
<stop offset="0.515718" stop-color="#FF00F5"/>
<stop offset="0.776042" stop-color="#0FEFFD" stop-opacity="0"/>
</linearGradient>
<clipPath id="clip0_1309_289">
<rect width="56" height="56" fill="white" transform="matrix(0 1 1 0 0 0)"/>
</clipPath>
</defs>
</svg>
